<?xml version="1.0" encoding="UTF-8"?>
<svg id="uuid-7f4ff35d-7373-4d1c-b1f2-dc31092bb237" data-name="Capa 1" xmlns="http://www.w3.org/2000/svg" viewBox="0 0 476.76 157.51">
  <defs>
    <style>
      .uuid-2b03aa89-6fb8-4fc6-8f52-2ffb85436501 {
        fill: #fff;
      }
    </style>
  </defs>
  <g>
    <path class="uuid-2b03aa89-6fb8-4fc6-8f52-2ffb85436501" d="m64.94,67.09v14.34h-16.38v-42h16.38v14.34h7.16l15.41-14.34h21.5l-21.78,21,21.78,21h-21.5l-15.41-14.34h-7.16Z"/>
    <path class="uuid-2b03aa89-6fb8-4fc6-8f52-2ffb85436501" d="m151.22,39.43h16.41v22.56c.06,15.88-12.94,20.44-28.69,20.47-15.75-.03-28.75-4.59-28.69-20.47v-22.56h16.38v21.53c-.06,6.91,5.59,8.09,12.31,8.19,6.69-.09,12.38-1.28,12.28-8.19v-21.53Z"/>
    <path class="uuid-2b03aa89-6fb8-4fc6-8f52-2ffb85436501" d="m191.38,39.43v28.69h32.78v13.31h-49.16v-42h16.38Z"/>
    <path class="uuid-2b03aa89-6fb8-4fc6-8f52-2ffb85436501" d="m229.69,39.43h20.5l16.38,21,16.41-21h20.47v42h-16.38v-22.41l-16.41,22.41h-8.19l-16.41-22.41v22.41h-16.38v-42Z"/>
    <path class="uuid-2b03aa89-6fb8-4fc6-8f52-2ffb85436501" d="m312.97,39.49h49.16v10.75h-32.78v5.38h32.78v9.72h-32.78v5.38h32.78v10.78h-49.16v-42Z"/>
    <path class="uuid-2b03aa89-6fb8-4fc6-8f52-2ffb85436501" d="m411.78,39.43h16.41v42h-18.44l-22.56-25.66v25.66h-16.38v-42h22.53l18.44,22.25v-22.25Z"/>
  </g>
  <g>
    <path class="uuid-2b03aa89-6fb8-4fc6-8f52-2ffb85436501" d="m168.28,97.56l-8.68,20.17h-6.43l-8.58-20.17h6.12l5.26,14.03c.28.76.45,1.43.51,2.01h.11c.08-.63.26-1.32.54-2.07l5.22-13.98h5.94Z"/>
    <path class="uuid-2b03aa89-6fb8-4fc6-8f52-2ffb85436501" d="m184.18,117.73h-5.68v-20.17h5.68v20.17Z"/>
    <path class="uuid-2b03aa89-6fb8-4fc6-8f52-2ffb85436501" d="m195.95,116.95v-4.5c1.02.68,2.13,1.2,3.32,1.54s2.4.51,3.62.51c.71,0,1.34-.05,1.87-.15s.98-.25,1.34-.43c.36-.18.62-.4.8-.65s.26-.52.26-.81c0-.39-.14-.75-.42-1.05-.28-.31-.67-.6-1.15-.86-.49-.26-1.06-.52-1.73-.76s-1.39-.49-2.16-.75c-1.97-.66-3.44-1.46-4.4-2.4s-1.45-2.09-1.45-3.43c0-1.05.26-1.95.79-2.71.53-.75,1.25-1.38,2.15-1.86.91-.49,1.96-.85,3.16-1.08,1.2-.23,2.46-.34,3.8-.34s2.48.06,3.49.19c1.01.13,1.95.32,2.8.58v4.2c-.42-.23-.88-.44-1.38-.62s-1.01-.33-1.54-.44c-.53-.12-1.05-.2-1.57-.26-.52-.06-1.02-.08-1.49-.08-.64,0-1.23.05-1.76.15-.53.1-.97.24-1.34.42s-.64.39-.84.64c-.2.25-.3.53-.3.84,0,.34.11.64.33.91.22.27.54.52.95.76.41.24.91.47,1.49.7.59.23,1.25.47,1.99.71,1.01.34,1.91.7,2.72,1.08.8.38,1.49.81,2.07,1.29.57.48,1.01,1.02,1.32,1.64.3.61.46,1.33.46,2.14,0,1.12-.27,2.07-.8,2.83s-1.26,1.38-2.17,1.86c-.91.47-1.98.81-3.19,1.02-1.21.21-2.49.31-3.84.31s-2.7-.09-3.95-.28-2.33-.47-3.24-.84Z"/>
    <path class="uuid-2b03aa89-6fb8-4fc6-8f52-2ffb85436501" d="m245.04,108.99c0,6.06-3.53,9.08-10.58,9.08s-10.27-2.96-10.27-8.87v-11.64h5.7v11.7c0,3.26,1.59,4.89,4.78,4.89s4.69-1.58,4.69-4.73v-11.87h5.68v11.43Z"/>
    <path class="uuid-2b03aa89-6fb8-4fc6-8f52-2ffb85436501" d="m279.1,117.73h-6.19l-1.79-4.49h-8.96l-1.78,4.49h-6.15l9.18-20.17h6.73l8.96,20.17Zm-9.28-7.97l-2.71-6.78c-.2-.51-.34-1.11-.42-1.81h-.14c-.06.59-.21,1.18-.44,1.76l-2.74,6.83h6.45Z"/>
    <path class="uuid-2b03aa89-6fb8-4fc6-8f52-2ffb85436501" d="m304.46,117.73h-15.01v-20.17h5.68v16.48h9.33v3.68Z"/>
    <path class="uuid-2b03aa89-6fb8-4fc6-8f52-2ffb85436501" d="m313.89,116.95v-4.5c1.02.68,2.13,1.2,3.32,1.54s2.4.51,3.62.51c.71,0,1.34-.05,1.87-.15s.98-.25,1.34-.43c.36-.18.62-.4.8-.65s.26-.52.26-.81c0-.39-.14-.75-.42-1.05-.28-.31-.67-.6-1.15-.86-.49-.26-1.06-.52-1.73-.76s-1.39-.49-2.16-.75c-1.97-.66-3.44-1.46-4.4-2.4s-1.45-2.09-1.45-3.43c0-1.05.26-1.95.79-2.71.53-.75,1.25-1.38,2.15-1.86.91-.49,1.96-.85,3.16-1.08,1.2-.23,2.46-.34,3.8-.34s2.48.06,3.49.19c1.01.13,1.95.32,2.8.58v4.2c-.42-.23-.88-.44-1.38-.62s-1.01-.33-1.54-.44c-.53-.12-1.05-.2-1.57-.26-.52-.06-1.02-.08-1.49-.08-.64,0-1.23.05-1.76.15-.53.1-.97.24-1.34.42s-.64.39-.84.64c-.2.25-.3.53-.3.84,0,.34.11.64.33.91.22.27.54.52.95.76.41.24.91.47,1.49.7.59.23,1.25.47,1.99.71,1.01.34,1.91.7,2.72,1.08.8.38,1.49.81,2.07,1.29.57.48,1.01,1.02,1.32,1.64.3.61.46,1.33.46,2.14,0,1.12-.27,2.07-.8,2.83s-1.26,1.38-2.17,1.86c-.91.47-1.98.81-3.19,1.02-1.21.21-2.49.31-3.84.31s-2.7-.09-3.95-.28-2.33-.47-3.24-.84Z"/>
  </g>
</svg>