<?xml version="1.0" encoding="UTF-8"?>
<svg id="uuid-15a90d08-a770-445e-8ccb-93846bd051e1" data-name="Capa 1" xmlns="http://www.w3.org/2000/svg" viewBox="0 0 430.11 195.01">
  <defs>
    <style>
      .uuid-cfe3cf4a-0efb-411f-bdff-5bcde96e3fff {
        fill: #fff;
      }
    </style>
  </defs>
  <path class="uuid-cfe3cf4a-0efb-411f-bdff-5bcde96e3fff" d="m206.78,114.62c6.03-5.74,11.56-10.71,16.72-16.04,2.56-2.65,4.24-2.91,7.24-.46,20.07,16.42,40.31,32.62,60.48,48.91,1.19.96,2.3,2.02,3.38,3.49-54.3-6.75-108.5-6.59-162.68.71-.09-.28-.18-.56-.26-.84,4.99-3.64,9.97-7.29,14.96-10.92,9.37-6.81,18.8-13.55,28.1-20.46,2.45-1.82,4.55-1.95,7.2-.55,3.03,1.61,12.3,5.03,15.33,4.27"/>
  <path class="uuid-cfe3cf4a-0efb-411f-bdff-5bcde96e3fff" d="m112.33,156.33c6.73-8.65,13.28-17.45,20.23-25.92,14.4-17.55,28.96-34.96,43.98-51.98,11.15-12.63,22.37-25.19,34.32-37.08,3.55-3.53,3.62-3.55,7.04-.12,19.34,19.39,37.15,40.16,54.7,61.14,14.64,17.5,29.45,34.87,42.86,53.68-1.37.19-1.97-.83-2.67-1.4-16.39-13.19-31.81-27.5-47.77-41.2-16.14-13.85-32.32-27.64-48.39-41.58-1.94-1.68-3.01-1.33-4.71.14-16.87,14.63-33.67,29.36-50.76,43.73-16.18,13.6-31.43,28.28-48.84,40.58Z"/>
  <path class="uuid-cfe3cf4a-0efb-411f-bdff-5bcde96e3fff" d="m322.71,154.42c-13.81-16.63-26.95-32.45-40.09-48.28.17-.25.34-.49.51-.74,35.89,16.65,71.88,33.08,108.25,48.79-9.12-1.97-18.25-3.91-27.36-5.91-12.25-2.69-24.48-5.43-36.72-8.13-4.57-1.01-4.58-.99-4.59,3.51,0,3.22,0,6.45,0,10.77Z"/>
  <path class="uuid-cfe3cf4a-0efb-411f-bdff-5bcde96e3fff" d="m38.72,153.69c33.06-12.77,66.11-25.53,99.17-38.3.18.18.35.37.53.55-10.56,12.39-21.12,24.78-31.69,37.17-.27-.04-.55-.09-.82-.13,0-2.93-.17-5.87.05-8.78.22-2.98-1.02-3.33-3.58-2.8-20.58,4.22-41.18,8.34-61.77,12.5"/>
</svg>